<?xml version="1.0" encoding="UTF-8"?>
<svg xmlns="http://www.w3.org/2000/svg" version="1.1" viewBox="0 0 497 511.9">
  <defs>
    <style>
      .cls-1 {
        fill: #ed1f78;
        stroke-width: 0px;
      }
    </style>
  </defs>
  <g id="Layer_1" data-name="Layer 1" image-rendering="optimizeQuality" shape-rendering="geometricPrecision" text-rendering="geometricPrecision">
    <path class="cls-1" d="M497,227.3c0,29.4-4.6,56.4-13.6,80.8-9.1,24.5-22.1,43.5-38.6,57-16.6,13.5-35.7,20.2-57.2,20.2s-32.8-5.4-45.1-16.1c-12.2-10.8-19.4-24.6-21.8-41.4h-2.4c-8.3,18-20.2,32.1-35.7,42.3-15.4,10.1-33.7,15.2-54.9,15.2-31.1,0-55.4-10.6-72.9-31.8-17.5-21.2-26.2-50.1-26.2-86.6s12.2-76.6,36.6-103c24.5-26.4,56.7-39.6,96.4-39.6s30,1.3,47.9,3.9c17.8,2.6,33.9,6.2,48.2,10.7l-7.8,146v6.8c0,36.9,13.8,55.4,41.3,55.4s34.3-11.1,46-33.4c11.8-22.3,17.7-51.2,17.7-86.9s-7.6-70.3-23-98.6c-15.3-28.2-37.1-49.9-65.5-65.2-28.2-15.2-60.7-22.8-97.4-22.8s-86.5,9.5-120.6,28.8c-34.2,19.2-60.3,46.6-78.3,82.1-18,35.5-27,76.6-27,123.3s16.6,111.8,50.1,145.9c33.3,34,81.4,50.9,144.2,50.9s88.7-8.9,135.5-26.7v41.4c-39.8,17.4-84.9,26.1-135.5,26.1-75.2,0-133.6-20.7-175.2-62.1C20.7,408.5,0,350.7,0,276.4s11-101.9,33.2-144c22.2-42,53.8-74.6,94.9-97.7C169,11.6,216.1,0,269.2,0s84.1,9.3,119,28.1c34.7,18.8,61.5,45.4,80.4,79.9,19,34.5,28.4,74.3,28.4,119.3ZM175.6,268c0,52.6,20.2,78.9,60.6,78.9s66.2-32.5,69.9-97.3l4.5-81.1c-15-4.1-31.2-6.3-48.8-6.3-26.9,0-48.1,9.3-63.3,28-15.2,18.6-22.8,44.6-22.8,77.7h0Z"/>
  </g>
</svg>