<?xml version="1.0" encoding="UTF-8"?>
<svg id="Layer_1" data-name="Layer 1" xmlns="http://www.w3.org/2000/svg" version="1.1" viewBox="0 0 71.6 122.9">
  <defs>
    <style>
      .cls-1 {
        fill: #ed1f78;
        fill-rule: evenodd;
        stroke-width: 0px;
      }
    </style>
  </defs>
  <path class="cls-1" d="M12.7,0h46.1c3.5,0,6.7,1.4,9,3.7,2.3,2.3,3.7,5.5,3.7,9v97.4c0,3.5-1.4,6.7-3.7,9s-5.5,3.7-9,3.7H12.7c-3.5,0-6.7-1.4-9-3.7S0,113.7,0,110.1V12.7C0,9.2,1.4,6,3.7,3.7,6.1,1.4,9.2,0,12.7,0h0ZM35.8,107.2c2.9,0,5.2,2.3,5.2,5.2s-2.3,5.2-5.2,5.2-5.2-2.3-5.2-5.2c0-2.9,2.3-5.2,5.2-5.2h0ZM3.7,103.2h64.3V19.7H3.7v83.5h0Z"/>
</svg>